<?xml version="1.0" standalone="no"?><!DOCTYPE svg PUBLIC "-//W3C//DTD SVG 1.1//EN" "http://www.w3.org/Graphics/SVG/1.1/DTD/svg11.dtd"><svg class="icon" width="32px" height="32.00px" viewBox="0 0 1024 1024" version="1.1" xmlns="http://www.w3.org/2000/svg"><path fill="#58003d" d="M828.85757536 193.80909131c-175.74545479-175.74545479-460.63636347-175.74545479-636.38181739 0-175.74545479 175.74545479-175.74545479 460.63636347 0 636.38181738 175.74545479 175.74545479 460.63636347 175.74545479 636.38181739 0 175.74545479-175.74545479 175.74545479-460.63636347 0-636.38181738zM393.78939362 714.58181826a44.14090869 44.14090869 0 1 1-62.46818174-62.34545478 44.14090869 44.14090869 0 0 1 62.46818174 62.34545478z m192.68181826 1.30909043a36.32727303 36.32727303 0 0 1-71.83636347-10.8h-0.04090871a6.13636347 6.13636347 0 0 0-0.04090956 0.28636436v-0.32727305c0.28636348-2.45454521 1.92272695-19.43181826-2.78181826-42.17727306a163.35 163.35 0 0 0-45.53181826-83.69999999 161.34545479 161.34545479 0 0 0-83.25-45.28636348 146.90454521 146.90454521 0 0 0-39.80454521-2.74090868 36.24545479 36.24545479 0 0 1-33.17727305-61.24090958 36.20454521 36.20454521 0 0 1 19.8-10.1454539v-0.2045461c4.17272695-0.69545479 104.19545479-15.42272695 187.81363652 68.19545479 83.45454521 83.45454521 69.54545479 183.88636348 68.85 188.18181826z m164.25 7.11818262a36.32727303 36.32727303 0 0 1-61.56818174 20.0454539 37.02272695 37.02272695 0 0 1-10.92272695-31.62272695c0.08181826-0.32727303 4.78636347-35.14090869-4.74545478-83.41363652-12.47727305-63.16363652-42.46363653-118.96363653-89.01818174-165.84545479-46.88181826-46.59545479-102.68181826-76.54090869-165.88636348-89.01818174-48.27272694-9.53181826-83.04545479-4.86818174-83.45454522-4.82727218h0.20454522-0.04090957a37.43181826 37.43181826 0 0 1-41.89090869-30.84545477 36.40909131 36.40909131 0 0 1 30.19090869-41.60454521c1.8-0.28636348 44.87727305-6.87272697 104.31818174 4.09090869a386.01818174 386.01818174 0 0 1 99.61363652 32.76818173 399.15 399.15 0 0 1 107.46818174 77.11363653l0.85909131 0.9 0.9 0.81818174a399.27272697 399.27272697 0 0 1 77.11363652 107.55c15.38181826 31.50000001 26.38636347 64.96363652 32.80909043 99.57272695 10.92272695 59.44090869 4.37727305 102.51818174 4.05 104.31818262z"  /></svg>