<?xml version="1.0" standalone="no"?><!DOCTYPE svg PUBLIC "-//W3C//DTD SVG 1.1//EN" "http://www.w3.org/Graphics/SVG/1.1/DTD/svg11.dtd"><svg class="icon" width="32px" height="32.00px" viewBox="0 0 1024 1024" version="1.1" xmlns="http://www.w3.org/2000/svg"><path fill="#58003d" d="M960 512a435.2 435.2 0 0 1-85.76 263.36000001 440.00000001 440.00000001 0 0 1-220.48000001 161.91999998 26.88 26.88 0 0 1-23.03999998-4.15999999 22.72000001 22.72000001 0 0 1-7.04-17.59999999v-122.88000002a104.64000001 104.64000001 0 0 0-30.40000001-82.87999999 416 416 0 0 0 59.52-10.24 218.24 218.24 0 0 0 54.72000001-23.04 164.80000001 164.80000001 0 0 0 47.03999999-38.4 184.00000001 184.00000001 0 0 0 32-61.44 293.76 293.76 0 0 0 12.16-88.00000001 168.64000001 168.64000001 0 0 0-46.40000001-119.99999999 154.88 154.88 0 0 0-4.48-119.04 76.48000001 76.48000001 0 0 0-47.03999999 6.4 300.48000001 300.48000001 0 0 0-53.76 25.6l-22.08000001 13.75999999a416 416 0 0 0-223.99999998 0c-6.4-4.48-14.40000001-9.28000001-24.64000001-15.67999999A326.08000001 326.08000001 0 0 0 326.4 256a82.88000001 82.88000001 0 0 0-50.24000001-8.00000001 156.8 156.8 0 0 0-4.15999999 120.00000001 173.76000001 173.76000001 0 0 0-46.08 120.64000001A288 288 0 0 0 238.08 576a196.48 196.48 0 0 0 32 61.44 152.00000001 152.00000001 0 0 0 47.04000001 39.04 267.84000001 267.84000001 0 0 0 54.71999999 23.04 414.08 414.08 0 0 0 59.84000001 10.24 92.48000001 92.48000001 0 0 0-28.8 60.16 99.2 99.2 0 0 1-26.56000001 8.32 167.36000001 167.36000001 0 0 1-32 2.88000001A69.12 69.12 0 0 1 303.36 768a109.44 109.44 0 0 1-32-36.48 96 96 0 0 0-28.16-30.40000001 80.64 80.64 0 0 0-28.8-14.07999998h-11.52a41.6 41.6 0 0 0-16.96000001 2.55999998q-4.80000001 2.88000001-2.87999999 6.72000001a44.16 44.16 0 0 0 5.44000001 7.99999999 55.36000001 55.36000001 0 0 0 7.67999998 7.36000001l4.16000001 2.56a78.08 78.08 0 0 1 25.6 22.08000001 157.76000001 157.76000001 0 0 1 18.24000001 29.43999998l5.75999998 13.44000002a72.32 72.32 0 0 0 25.60000002 36.15999999 96 96 0 0 0 38.71999999 16.64 196.16000001 196.16000001 0 0 0 40.32 4.16000001 182.08000001 182.08000001 0 0 0 32-2.24000001l13.44-2.24000001v83.84000002a23.04 23.04 0 0 1-7.68 17.59999999 27.84000001 27.84000001 0 0 1-23.36000001 4.16000001 438.08000001 438.08000001 0 0 1-219.19999999-162.88000001A427.84000001 427.84000001 0 0 1 64 512a437.44000001 437.44000001 0 0 1 60.16-224A443.52 443.52 0 0 1 288 124.16 437.44000001 437.44000001 0 0 1 512 64a437.44000001 437.44000001 0 0 1 224 60.16A443.52 443.52 0 0 1 899.84 288 436.80000001 436.80000001 0 0 1 960 512z" /></svg>