<?xml version="1.0" standalone="no"?><!DOCTYPE svg PUBLIC "-//W3C//DTD SVG 1.1//EN" "http://www.w3.org/Graphics/SVG/1.1/DTD/svg11.dtd"><svg class="icon" width="32px" height="32.00px" viewBox="0 0 1024 1024" version="1.1" xmlns="http://www.w3.org/2000/svg"><path fill="#58003d" d="M512 62C263.459375 62 62 263.4875 62 512s201.4875 450 450 450 450-201.4875 450-450c-0.028125-248.5125-201.4875-450-450-450z m254.25 587.86875001c-19.096875 16.36874998-43.90312499-53.915625-47.475-43.0875-8.690625 26.325-12.76875001 43.90312499-38.3625 72.50624999-1.35000001 1.51875001 29.5875 12.7125 38.3625 36.590625 8.38125001 22.89375001 24.721875 59.146875-82.153125 70.509375-62.71875001 6.66562501-108.05625001-33.4125-112.584375-33.046875-8.38125001 0.73125001-4.64062501 0-13.640625 0-7.340625 0-7.846875 0.53437501-14.76562501 0-1.9125-0.140625-22.753125 33.046875-115.9875 33.046875-72.28125001 0-90.984375-45.478125-76.44374999-70.509375s38.784375-32.2875 35.38124999-36.253125a195.553125 195.553125 0 0 1-35.38124999-59.203125 144.590625 144.590625 0 0 1-4.275-13.64062499c-2.615625-10.06875001-22.753125 59.090625-44.353125 43.0875s-19.68749999-56.615625-5.68125-95.5125c14.11875001-39.20625001 49.640625-76.978125 50.034375-85.33125001 1.434375-31.021875-3.06562501-36.16875001 0-44.32500001 6.80625001-18.253125 15.10312499-11.25 15.103125-20.69999999 0-119.30625001 88.65-216.00000001 198-216s198 96.721875 198 216c0 4.584375 11.896875 0 17.55 20.69999999 1.153125 4.275 1.996875 20.784375 0.59062498 44.32500001-0.64687499 11.30625001 30.121875 25.059375 46.01250001 85.33125001 15.946875 60.30000001 0.028125 88.70625001-7.93124999 95.5125z" /></svg>