<?xml version="1.0" standalone="no"?><!DOCTYPE svg PUBLIC "-//W3C//DTD SVG 1.1//EN" "http://www.w3.org/Graphics/SVG/1.1/DTD/svg11.dtd"><svg class="icon" width="32px" height="32.00px" viewBox="0 0 1024 1024" version="1.1" xmlns="http://www.w3.org/2000/svg"><path fill="#58003d" d="M571.59055127 511.88436406c-10.25511767 0-20.51473537 9.52350997-20.51473536 21.24724394 0 9.52530908 10.25421855 19.05061904 20.51473536 19.05061905 15.39167607 0 26.38110233-9.52530908 26.38110235-19.05061905C597.97165362 521.40877403 586.98222734 511.88436406 571.59055127 511.88436406L571.59055127 511.88436406zM504.17637823 412.95613028c16.12058467 0 26.38110233-10.25511767 26.38110234-25.64769376 0-16.12148467-10.25961769-25.64589463-26.38110235-25.64589462-15.38807607 0-30.04454444 9.52530908-30.04454444 25.64589462C474.13093379 402.7019126 488.78830127 412.95613028 504.17637823 412.95613028L504.17637823 412.95613028zM512.23667012 62.49223849c-248.39595088 0-449.75747989 201.36152988-449.75747989 449.75747988 0 248.39415088 201.36152988 449.75568076 449.75747989 449.75568077 248.39415088 0 449.75568076-201.36152988 449.75568076-449.75568077C961.99325088 263.85376836 760.63172099 62.49223849 512.23667012 62.49223849L512.23667012 62.49223849zM427.23599521 626.19437568c-27.11541094 0-46.90033769-4.39325068-72.54713144-11.72373486l-74.01034864 37.37502773 21.25444307-63.02272236c-52.02789609-36.63532089-82.80764912-82.80135001-82.80764912-139.22609677 0-99.65804239 93.79617539-175.8677168 208.11158613-175.86771681 101.12215957 0 191.25489287 60.08908886 208.84049473 145.0942629-7.32688418-1.46951631-13.92395977-2.1984249-19.78492676-2.19842491-99.65804239 0-176.59752539 74.74105722-176.59752539 164.87379054 0 15.38627696 2.1984249 29.30843673 5.86276699 43.96670419C439.69493779 626.19437568 433.09786309 626.19437568 427.23599521 626.19437568L427.23599521 626.19437568zM732.80539971 698.00629941l14.65286835 52.7631047-55.69043905-31.50866162c-21.24904395 4.39325068-41.76827929 10.98942627-63.01732325 10.98942627-98.19392607 0-175.8677168-67.41417305-175.8677168-150.94983165 0-83.53655771 77.67469072-150.95163075 175.8677168-150.95163076 93.06096769 0 176.59752539 67.41507305 176.59752539 150.95163076C805.34803115 626.19437568 773.83937041 667.96265499 732.80539971 698.00629941L732.80539971 698.00629941zM359.08661445 361.6625419c-15.38807607 0-31.50866162 9.52530908-31.50866162 25.64589462 0 15.39257607 16.12058467 25.65219375 31.50866162 25.65219376 14.65736748 0 26.38110233-10.25961769 26.38110235-25.65219376C385.4677168 371.18785185 373.74398193 361.6625419 359.08661445 361.6625419L359.08661445 361.6625419zM686.64026973 511.88436406c-10.99392539 0-20.51923535 9.52350997-20.51923535 21.24724394 0 9.52530908 9.52530908 19.05061904 20.51923534 19.05061905 14.65286836 0 25.64589463-9.52530908 25.64589463-19.05061905C712.28616435 521.40877403 701.29313809 511.88436406 686.64026973 511.88436406L686.64026973 511.88436406zM686.64026973 511.88436406" /></svg>