<?xml version="1.0" standalone="no"?><!DOCTYPE svg PUBLIC "-//W3C//DTD SVG 1.1//EN" "http://www.w3.org/Graphics/SVG/1.1/DTD/svg11.dtd"><svg class="icon" width="32px" height="32.00px" viewBox="0 0 1024 1024" version="1.1" xmlns="http://www.w3.org/2000/svg"><path fill="#58003d" d="M512 62a450 450 0 1 1 0 900A450 450 0 0 1 512 62zM352.6499999 212.00000029s-44.79999961 2.49999961-60.99999961 31.5C275.50000039 272.39999961 224.5000001 417.1500002 224.5000001 417.1500002s17.44999981 7.5499998 46.05000029-13.84999981c28.64999971-21.39999961 38.5999998-59.15000039 38.59999981-59.15000039l52.30000019-2.49999961 1.19999971 153.49999922H359.5000001c-16.2-0.20000039-89.79999961-1.05000029-106.40000039 0-18.69999961 1.2999999-28.64999971 51.64999981-28.64999971 51.65000068h138.15s-12.44999971 85.60000019-47.3000001 147.29999942C279.19999971 755.8499999 212.00000029 804.95 212.00000029 804.95s48.49999981 20.09999971 95.85-7.5999999c47.3000001-28.95000029 82.14999961-153.5500002 82.14999961-153.5500002l110.8000002 139.75000049s10.00000019-66.75000029-1.24999981-85.65000029c-12.44999971-18.8499999-77.19999961-94.3999998-77.20000049-94.39999981l-28.59999961 25.2 19.9000002-83.10000058 120.74999941-0.0500001v-0.64999951c-0.1000002-6.05000039-1.69999981-48.6-23.64999961-50.9000001-23.64999961-2.49999961-97.09999981 0-97.0999998 0V342.90000019h109.54999951S522.00000019 292.55000029 500.8000001 292.55000029h-178.00000049L352.6499999 212.00000029zM811.99999971 288.8h-248.99999942l-1.20000058 454.4499999h44.80000049l16.2 56.64999991 78.40000019-56.64999991H811.99999971v-454.5z m-49.79999971 51.59999971v352.50000028h-52.30000019L644.00000029 744.49999971l-14.95000019-51.5999997h-13.70000039v-352.5000003h146.90000039z" /></svg>